<svg xmlns="http://www.w3.org/2000/svg" xml:space="preserve" viewBox="0 0 250 40"><path d="M231.12 31.639c-.805.799-1.883 2.003-2.82 3.133-1.383-1.057-2.731-1.997-3.52-2.591V11.378c0-1.025-.491-1.474-.968-1.7v-.116l4.797-3.52.074.076V30.52c1.15.693 1.624.951 2.399 1.04zm-22.347-15.08c-.778 1.69-2.011 2.786-3.596 2.786-1.509 0-2.118-.429-3.288-1.548l-.35.347v11.834c1.785 1.015 2.468 1.388 3.018 1.388.46 0 .817-.231 1.351-.772l.273.273c-1.374 1.351-2.651 2.696-3.75 3.905-1.599-1.161-3.162-2.233-4.795-3.327v-12.45c-.563-.526-1.438-1.246-2.202-1.43l-.039-.079 2.628-2.936c1.301 1.081 2.266 1.906 3.635 2.899 1.146-1.025 1.95-1.809 2.979-2.862.872 1.093 2.471 1.766 4.098 1.855zM167.635 5.577c-1.025 2.329-2.298 3.711-3.985 3.711-.799 0-2.418-.81-3.556-.81-1.28 0-2.247.397-2.978 1.701l-.155-.155c.328-3.214 2.25-4.718 4.486-4.718 1.391 0 2.768.852 3.984.852.739 0 1.409-.187 2.124-.736zm15.775.234c-.287 1.43-1.42 2.721-2.592 3.325v21.225c1.136.3 1.708.547 2.552 1.125l-3.094 3.285c-1.15-1.046-2.533-1.509-3.905-1.509-1.953 0-3.422.689-4.371 1.352l-.037-.152c.639-2.718 2.792-4.295 4.523-4.447v-9.319h-7.19V30.75c.226.11.423.195.657.195.386 0 .901-.516 1.277-1.047l.307.269c-.933 1.13-2.575 3.007-3.75 4.604-1.793-1.198-3.262-1.666-5.606-1.666-2 0-3.735.494-4.986 1.277l-.078-.194c1.153-2.823 3.277-4.679 7.036-4.679 1.685 0 2.996.342 4.642 1.046V4.883h.502V17.06h7.19V9.328c-1.214-.281-2.255-.768-2.975-1.509.951-.928 2.081-2.137 2.975-3.13 1.039.901 2.36 1.509 3.985 1.509.978 0 1.981-.171 2.859-.542z"/><path d="M167.44 9.289c-.408.739-.579 1.782-.579 4.176v8.971c0 2.874-2.104 5.239-4.991 6.107l-.188-.116c.544-.483.886-1.314.886-2.239v-5.492h-1.005c-1.545 0-2.118.77-2.281 1.625h-.115c-.444-.365-.928-1.03-.928-2.245 0-1.764 1.393-3.015 3.401-3.015h.928V15.09c0-3.312 2.026-5.065 4.754-5.877zm-16.298.078c-.636.657-1.288 1.396-2.166 2.437-.728-.636-1.706-1.327-2.707-2.089.707-.747 1.445-1.53 2.245-2.513.845.736 1.747 1.487 2.628 2.165m2.278 22.23s-1.014 1.156-2.704 3.175c-1.064-.841-2.439-1.845-3.52-2.591V18.493c-.775-.615-1.175-.854-1.582-.928l-.042-.079 2.592-2.899c1.012.783 1.887 1.422 2.938 2.166V30.52c1.074.651 1.826.945 2.281 1.004zm-7.924-.037s-.757.82-2.707 3.212c-1.167-.92-2.273-1.729-3.518-2.591V19.15l-3.093-1.895-1.585 1.275v12.957c.56.347 1.119.694 1.119.694-.712.667-2.068 1.955-2.704 2.591-.978-.783-2.321-1.818-2.321-1.818V19.035l-2.744-1.895-1.935 1.545v12.801c.353.231.766.489 1.083.651-.912.862-1.863 1.777-2.667 2.634-.82-.662-1.729-1.393-2.321-1.818V19.035c-1.275-1.123-1.701-1.364-2.357-1.433l-.04-.076c.92-.922 1.942-1.974 2.747-2.938 1.22.964 2.56 2.047 3.982 3.133 1.141-.888 2.426-1.882 3.942-3.093 1.243.899 2.943 2.084 4.331 3.093 1.319-1.046 2.553-2.04 3.83-3.17 1.119.778 3.608 2.269 4.636 2.936V30.52c.823.53 1.559.877 2.281.967zM102.538 9.367c-.636.657-1.288 1.396-2.163 2.437-.728-.636-1.706-1.327-2.707-2.089.704-.747 1.448-1.53 2.242-2.513.849.736 1.75 1.487 2.628 2.165m2.281 22.23s-1.014 1.156-2.705 3.175c-1.064-.841-2.439-1.845-3.519-2.591V18.493c-.775-.615-1.175-.854-1.585-.928l-.04-.079 2.592-2.899c1.012.783 1.887 1.422 2.938 2.166V30.52c1.075.651 1.827.945 2.281 1.004zM71.918 5.462c-1.025 2.329-2.334 3.711-4.021 3.711-.802 0-2.416-.812-3.556-.812-1.28 0-2.247.399-2.978 1.703l-.193-.116c.326-3.217 2.284-4.757 4.521-4.757 1.39 0 2.77.852 3.982.852.744 0 1.417-.273 2.013-.696zM44.323 31.676c-.796.794-1.714 1.897-2.747 3.096-1.228-.936-2.715-2.045-3.52-2.591v-12.49c-1.012-.801-2.095-1.556-3.169-2.321-.573.497-1.004.894-1.509 1.354v12.762c.344.258.623.426 1.046.651l-2.628 2.634c-1.006-.825-1.876-1.435-2.36-1.818V11.417c0-.943-.252-1.582-.812-1.895v-.115l4.681-3.404.074.04v12.025l3.945-3.48c1.461 1.091 3.007 2.139 4.639 3.093V30.52c.868.578 1.659.967 2.284 1.077zM245 29.278c-2.976 1.667-5.257 3.517-7.347 5.493-1.627-1.251-3.635-2.607-5.22-3.674V17.991c1.714-.933 3.611-1.963 5.801-3.249l-4.447-4.486c-.852-.857-1.472-1.317-2.126-1.545l-.037-.079c1.349-.967 2.46-1.842 3.362-2.628 1.719 1.771 5.563 5.709 10.014 10.248zm-3.905 1.935V17.602l-2.59-2.513c-.869.557-1.508.878-2.163 1.275v12.762c1.133.841 3.063 2.108 4.059 2.628zm-18.402.657-2.439 2.859c-1.304-1.009-2.303-1.771-3.979-3.012-1.689.973-2.581 1.608-4.873 3.054-2.002-1.13-3.403-3.111-3.403-5.84 0-2.182 1.377-4.032 4.098-5.025-1.22-.873-1.708-1.162-2.741-1.662v-4.216c2.311-1.159 3.719-1.945 5.914-3.44 1.797 1.198 3.151 2.063 5.374 3.556v12.644c1.073.768 1.577.973 2.011 1.004zm-5.956-8.006v-4.057c-1.479-1.067-2.494-1.787-4.213-2.938l-.234.155v6.84c.729-.189 1.596-.311 2.048-.311 1.004.001 1.722.133 2.399.311m0 7.002v-6.419c-.563-.173-1.277-.31-2.242-.31-1.937 0-2.592 1.509-2.592 3.517 0 2.182.75 3.801 2.206 4.757zm-21.226-10.247-6.881 4.254v4.989c1.816 1.108 2.476 1.545 3.052 1.545.525 0 .933-.473 1.857-1.393l.308.31c-1.464 1.404-2.938 2.839-4.368 4.447-1.506-1.099-3.256-2.334-4.757-3.327V19.15c2.003-1.196 5.288-3.382 6.923-4.563 1.069 1.79 2.341 3.738 3.866 6.032m-3.52 1.625c-1.015-1.664-2.236-3.798-3.054-5.26l-.308.192v7.156zm-71.974 9.626-2.437 2.859c-1.306-1.009-2.305-1.771-3.982-3.012-1.69.973-2.578 1.608-4.873 3.054-2-1.13-3.401-3.111-3.401-5.84 0-2.182 1.377-4.032 4.098-5.025-1.222-.873-1.708-1.162-2.744-1.662v-4.216c2.311-1.159 3.722-1.945 5.914-3.44 1.801 1.198 3.154 2.063 5.375 3.556v12.644c1.075.768 1.577.973 2.011 1.004zm-5.954-8.006v-4.057c-1.48-1.067-2.534-1.787-4.255-2.938l-.192.155v6.84c.728-.189 1.593-.311 2.05-.311.999.001 1.717.133 2.397.311m0 7.002v-6.419c-.563-.173-1.28-.31-2.245-.31-1.937 0-2.589 1.509-2.589 3.517 0 2.182.747 3.801 2.203 4.757zm-17.092.499s-2.174 2.045-3.556 3.406c-1.246-1.13-3.025-2.513-4.523-3.674-1.133.852-3.948 2.901-4.91 3.711-1.254-.904-3.041-1.74-5.569-1.74-1.698 0-2.91.578-3.866 1.235l-.077-.189c.486-1.498 1.929-3.228 3.711-4.1v-9.319h-5.104v9.934c0 2.628-1.695 4.216-4.447 4.216-1.932 0-3.74-.962-5.606-.962-1.897 0-2.691.525-3.401 1.388l-.231-.074c.152-2.996 1.743-4.836 4.678-4.836 1.895 0 3.961.931 5.993.931 1.798 0 2.513-.604 2.513-2.439V8.439c-.888.497-1.243.739-1.855 1.083v14.457c0 3.112-2.668 4.657-5.722 4.952l-.04-.079c.804-.499 1.43-1.745 1.43-3.401v-4.755h-.659c-1.545 0-2.118.809-2.281 1.664l-.116-.039c-.444-.365-.967-1.03-.967-2.245 0-1.764 1.435-3.015 3.441-3.015h.581v-2.163c0-2.744 1.74-4.405 4.216-5.84l7.809-4.523c1.519 1.102 3.448 2.505 5.028 3.556l6.032-3.44c1.051 1.214 2.161 2.129 4.134 2.129 1.038 0 1.948-.179 2.476-.389l.076.118c-.21 1.333-.92 2.573-2.203 3.285v20.069c1.267.819 2.221 1.414 2.978 1.43zm-7.306-14.304V9.678c-1.682-.371-2.82-1.293-3.79-2.476l-1.123.696v9.163zm-5.413 13.263V8.129l-1.779 1.043v20.61c.697.116 1.117.322 1.779.542m-6.11-13.263V9.599s-2.221-1.601-3.364-2.437l-1.7 1.007v8.892zm11.523 12.875v-9.24h-4.913v9.781c1.27.694 1.834 1.047 2.555 1.047.395 0 .799-.331 1.159-.621 0-.001.765-.626 1.199-.967m-33.202-9.317-6.883 4.254v4.989c1.819 1.108 2.479 1.545 3.057 1.545.526 0 .933-.473 1.855-1.393l.308.31c-1.464 1.404-2.899 2.839-4.329 4.447-1.509-1.099-3.299-2.334-4.794-3.327V19.15c2-1.196 5.286-3.382 6.918-4.563 1.072 1.79 2.343 3.738 3.868 6.032m-3.519 1.625c-1.015-1.664-2.239-3.798-3.054-5.26l-.31.192v7.156zm-24.978 5.258c-1.309 4.567-4.949 7.964-11.173 7.964-7.047 0-11.407-4.931-11.407-11.87 0-4.974 3.299-9.586 8.7-11.6l.191.116c-1.584 1.79-2.925 3.309-3.748 5.646l7.461-3.286v9.161c0 .389.229.978.426 1.198v.079c-1.695.936-5.18 2.854-6.652 3.633 1.706 2.165 4.127 3.484 7.425 3.484.859 0 1.553-.084 2.513-.31V12.421c-1.671-.124-3.929-.846-5.725-1.351-2.167-.614-4.446-1.24-6.067-1.24-2.118 0-3.596.576-3.596 2.437 0 .639.216 1.211.542 1.74l-.231.04C5.712 13.336 5 12.211 5 10.8c0-3.782 3.233-5.183 6.689-5.183 1.409 0 3.556.61 5.759 1.277 1.583.476 4.182 1.354 5.801 1.354 1.404 0 2.09-.639 2.09-1.664 0-.875-.284-1.356-.931-1.855l.234-.155c1.601.542 2.823 1.893 2.823 3.827 0 2.549-1.477 4.021-5.259 4.021v19.175c2.565-.752 4.308-2.576 5.646-4.247zm-14.229-.542V16.906c-1.081.486-2.332.996-3.441 1.508-.273 1.088-.386 2.132-.386 3.327 0 2.56.444 4.614 1.625 6.418.735-.394 1.632-.873 2.202-1.199"/></svg>